<svg xmlns="http://www.w3.org/2000/svg" version="1.1" viewBox="46 246 358 65.79">
<path d="M0 0 C0.91974609 -0.02900391 1.83949219 -0.05800781 2.78710938 -0.08789062 C3.67076172 -0.09626953 4.55441406 -0.10464844 5.46484375 -0.11328125 C6.67901978 -0.13515503 6.67901978 -0.13515503 7.91772461 -0.1574707 C10.0625 0.3125 10.0625 0.3125 11.7265625 1.99487305 C13.20585861 4.56120308 14.13581554 6.99732289 15.03515625 9.8203125 C15.54852539 11.42519531 15.54852539 11.42519531 16.07226562 13.0625 C16.41966797 14.17625 16.76707031 15.29 17.125 16.4375 C17.6519043 18.07332031 17.6519043 18.07332031 18.18945312 19.7421875 C20.23615687 26.21116416 21.90960827 32.6247868 23.0625 39.3125 C23.7225 39.3125 24.3825 39.3125 25.0625 39.3125 C24.95421875 37.4253125 24.95421875 37.4253125 24.84375 35.5 C24.37836654 27.08926667 23.94695727 18.6733527 23.8125 10.25 C23.78671875 8.98027344 23.7609375 7.71054688 23.734375 6.40234375 C24.0625 3.3125 24.0625 3.3125 25.32421875 1.39453125 C28.50034735 -0.58251958 31.39788648 0.07982613 35.0625 0.3125 C35.7225 0.6425 36.3825 0.9725 37.0625 1.3125 C38.42449224 7.66435688 38.15925445 14.36212171 37.94140625 20.8203125 C37.90598976 22.09755692 37.90598976 22.09755692 37.86985779 23.40060425 C37.79421333 26.07978277 37.70977237 28.7585964 37.625 31.4375 C37.57167954 33.27081638 37.51894013 35.10414976 37.46679688 36.9375 C37.33873537 41.39605768 37.20279266 45.85431111 37.0625 50.3125 C32.86706908 51.71097697 28.89368623 51.49675263 24.5 51.5 C23.62408203 51.51224609 22.74816406 51.52449219 21.84570312 51.53710938 C21.00845703 51.53904297 20.17121094 51.54097656 19.30859375 51.54296875 C18.54216553 51.54707764 17.7757373 51.55118652 16.98608398 51.55541992 C15.0625 51.3125 15.0625 51.3125 13.0625 49.3125 C12.05260564 46.46643407 11.12685773 43.63699113 10.25 40.75 C10.01474609 39.99525391 9.77949219 39.24050781 9.53710938 38.46289062 C6.95126029 30.1080869 4.52068178 21.70553102 2.0625 13.3125 C2.03744385 14.42810303 2.0123877 15.54370605 1.98657227 16.69311523 C1.89266579 20.8174259 1.79240486 24.9415615 1.69018555 29.06567383 C1.646773 30.8533927 1.60510271 32.64115474 1.56518555 34.42895508 C1.5076354 36.99313391 1.44389797 39.55709412 1.37890625 42.12109375 C1.35383751 43.32734657 1.35383751 43.32734657 1.32826233 44.55796814 C1.17637171 50.19862829 1.17637171 50.19862829 0.0625 51.3125 C-1.76865883 51.41101171 -3.60369933 51.44222629 -5.4375 51.4375 C-6.4378125 51.44007813 -7.438125 51.44265625 -8.46875 51.4453125 C-10.9375 51.3125 -10.9375 51.3125 -11.9375 50.3125 C-12.03069449 48.7776703 -12.054958 47.23857918 -12.05102539 45.70092773 C-12.05094986 44.71998642 -12.05087433 43.7390451 -12.05079651 42.7283783 C-12.04563522 41.6617244 -12.04047394 40.5950705 -12.03515625 39.49609375 C-12.0337413 38.4099025 -12.03232635 37.32371124 -12.03086853 36.2046051 C-12.02525048 32.71970925 -12.01269492 29.23487658 -12 25.75 C-11.99498733 23.39388113 -11.99042402 21.03776126 -11.98632812 18.68164062 C-11.97527519 12.89190536 -11.95851951 7.10220719 -11.9375 1.3125 C-8.28883622 -0.51183189 -4.01743877 0.04205274 0 0 Z " fill="#8E6AC0" transform="translate(278.9375,246.6875)"/>
<path d="M0 0 C2.96634741 0.35596169 4.34106604 0.15798143 7.125 -0.625 C9.45800933 -0.66388349 11.79209801 -0.6698635 14.125 -0.625 C14.20582094 1.33266281 14.26410778 3.29126728 14.3125 5.25 C14.36470703 6.88582031 14.36470703 6.88582031 14.41796875 8.5546875 C14.32128906 9.48539062 14.22460938 10.41609375 14.125 11.375 C13.135 12.035 12.145 12.695 11.125 13.375 C10.43858055 15.33619844 9.7537739 17.29802099 9.0859375 19.265625 C7.49096758 22.76677849 4.97733634 24.83958992 2.125 27.375 C2.90875 27.808125 3.6925 28.24125 4.5 28.6875 C7.125 30.375 7.125 30.375 9.125 33.375 C9.54149536 37.67878539 9.62615289 40.247406 7.875 44.1875 C-1.79402602 51.8787707 -18.2336254 50.29703375 -29.875 49.375 C-30.875 48.375 -30.875 48.375 -30.97265625 46.08984375 C-30.96105469 45.17332031 -30.94945312 44.25679688 -30.9375 43.3125 C-30.92847656 42.39339844 -30.91945312 41.47429687 -30.91015625 40.52734375 C-30.89855469 39.81707031 -30.88695312 39.10679687 -30.875 38.375 C-27.48863691 37.62984101 -24.25556897 37.20729437 -20.79296875 37.05859375 C-19.86162109 37.01669922 -18.93027344 36.97480469 -17.97070312 36.93164062 C-17.01099609 36.89232422 -16.05128906 36.85300781 -15.0625 36.8125 C-14.08345703 36.76931641 -13.10441406 36.72613281 -12.09570312 36.68164062 C-9.68892973 36.5759774 -7.28206017 36.47387673 -4.875 36.375 C-4.545 35.715 -4.215 35.055 -3.875 34.375 C-9.9366582 34.1418593 -15.30979098 34.93242543 -21.23828125 36.23046875 C-23.875 36.375 -23.875 36.375 -25.6875 35.125 C-27.3594471 32.66107795 -27.55041866 30.29623204 -27.875 27.375 C-26.885 26.715 -25.895 26.055 -24.875 25.375 C-25.844375 24.59125 -26.81375 23.8075 -27.8125 23 C-29.71462346 21.46211295 -30.77129957 20.58240087 -31.875 18.375 C-31.97085131 16.73143193 -32.00483511 15.08385358 -32 13.4375 C-32.00257813 12.56222656 -32.00515625 11.68695313 -32.0078125 10.78515625 C-31.81266078 7.24372643 -31.26175788 5.72952806 -28.625 3.3125 C-19.71599559 -2.96429856 -10.18450441 -1.642662 0 0 Z M-17.875 12.375 C-18.76193303 14.41605639 -18.76193303 14.41605639 -18.875 16.375 C-16.06272378 17.31242541 -14.28753156 17.50970844 -11.375 17.5 C-10.6015625 17.50257813 -9.828125 17.50515625 -9.03125 17.5078125 C-6.69052983 17.45645813 -6.69052983 17.45645813 -3.875 16.375 C-4.205 14.725 -4.535 13.075 -4.875 11.375 C-11.61815378 10.07952637 -11.61815378 10.07952637 -17.875 12.375 Z " fill="#8F6BC2" transform="translate(217.875,261.625)"/>
<path d="M0 0 C3.67510148 6.71531751 3.36213568 14.13376677 3.1875 21.5625 C3.16719727 23.21862305 3.16719727 23.21862305 3.14648438 24.90820312 C3.11144815 27.60599272 3.06232591 30.30272636 3 33 C0.49860398 34.25069801 -1.27392691 34.13302467 -4.0625 34.125 C-5.41021484 34.12886719 -5.41021484 34.12886719 -6.78515625 34.1328125 C-9 34 -9 34 -10 33 C-10.15764405 31.22130274 -10.25100677 29.43681524 -10.31640625 27.65234375 C-10.35830078 26.57275391 -10.40019531 25.49316406 -10.44335938 24.38085938 C-10.48267578 23.24455078 -10.52199219 22.10824219 -10.5625 20.9375 C-10.60568359 19.79732422 -10.64886719 18.65714844 -10.69335938 17.48242188 C-10.79982839 14.65507805 -10.90184207 11.82764262 -11 9 C-13.31 9.33 -15.62 9.66 -18 10 C-19.48885773 14.46657319 -19.35583786 19.07726509 -19.51757812 23.75195312 C-19.83895004 30.7190537 -19.83895004 30.7190537 -22 34 C-23.62463842 34.05395478 -25.24978541 34.09277195 -26.875 34.125 C-28.23238281 34.15980469 -28.23238281 34.15980469 -29.6171875 34.1953125 C-32 34 -32 34 -34 32 C-34.31884766 29.75341797 -34.31884766 29.75341797 -34.4140625 26.9921875 C-34.45273438 26.00605469 -34.49140625 25.01992188 -34.53125 24.00390625 C-34.5621875 22.97136719 -34.593125 21.93882812 -34.625 20.875 C-34.66367188 19.83472656 -34.70234375 18.79445313 -34.7421875 17.72265625 C-34.83664766 15.14861689 -34.92221214 12.57458845 -35 10 C-36.84725052 9.30840599 -36.84725052 9.30840599 -39 9 C-39.99 9.66 -40.98 10.32 -42 11 C-42.33364969 13.99103659 -42.51298455 16.81563626 -42.5625 19.8125 C-42.77321292 29.59114045 -42.77321292 29.59114045 -45 34 C-46.62490954 34.02698189 -48.24994633 34.04638757 -49.875 34.0625 C-51.23238281 34.07990234 -51.23238281 34.07990234 -52.6171875 34.09765625 C-55 34 -55 34 -57 33 C-57.02465098 28.03377651 -57.04283649 23.06758834 -57.05493164 18.10131836 C-57.0599719 16.41055684 -57.06680405 14.71979971 -57.07543945 13.02905273 C-57.08751857 10.60399293 -57.09323123 8.17899056 -57.09765625 5.75390625 C-57.10281754 4.99348526 -57.10797882 4.23306427 -57.11329651 3.44960022 C-57.11349238 1.6326743 -57.06197277 -0.18413127 -57 -2 C-56 -3 -56 -3 -53.27734375 -3.09765625 C-51.62412109 -3.08025391 -51.62412109 -3.08025391 -49.9375 -3.0625 C-48.28041016 -3.04896484 -48.28041016 -3.04896484 -46.58984375 -3.03515625 C-45.73519531 -3.02355469 -44.88054687 -3.01195312 -44 -3 C-43.67 -1.68 -43.34 -0.36 -43 1 C-42.071875 0.01 -42.071875 0.01 -41.125 -1 C-36.87010217 -3.72313461 -32.94567101 -3.8926333 -28 -3 C-24.4458307 -0.83388631 -23.28127778 1.0493935 -22 5 C-21.319375 3.88625 -20.63875 2.7725 -19.9375 1.625 C-17.87048333 -1.24553301 -16.97814246 -2.01011923 -13.625 -3.5625 C-8.1955531 -4.21777807 -4.50871807 -3.00581205 0 0 Z M-45 3 C-44 6 -44 6 -44 6 Z " fill="#8C68C0" transform="translate(142,264)"/>
<path d="M0 0 C1.09090187 0.03185898 1.09090187 0.03185898 2.20384216 0.06436157 C3.74136229 0.11062961 5.27880429 0.15955844 6.81616211 0.2109375 C9.17740591 0.2888583 11.53878475 0.3559537 13.90039062 0.421875 C15.39194734 0.46810108 16.88348476 0.51495466 18.375 0.5625 C19.08539932 0.58234955 19.79579865 0.6021991 20.52772522 0.62265015 C25.50603427 0.79900302 25.50603427 0.79900302 26.62109375 1.9140625 C26.69314886 3.60015216 26.70495443 5.28906909 26.68359375 6.9765625 C26.67457031 7.89566406 26.66554688 8.81476563 26.65625 9.76171875 C26.64464844 10.47199219 26.63304687 11.18226563 26.62109375 11.9140625 C23.73844226 12.87494633 21.94447104 13.03077191 18.953125 13.01171875 C18.06044922 13.00849609 17.16777344 13.00527344 16.24804688 13.00195312 C14.85489258 12.98938477 14.85489258 12.98938477 13.43359375 12.9765625 C12.49322266 12.97205078 11.55285156 12.96753906 10.58398438 12.96289062 C8.26295663 12.95110876 5.94205731 12.93465808 3.62109375 12.9140625 C3.62109375 15.2240625 3.62109375 17.5340625 3.62109375 19.9140625 C10.22109375 19.9140625 16.82109375 19.9140625 23.62109375 19.9140625 C23.62109375 23.5440625 23.62109375 27.1740625 23.62109375 30.9140625 C19.43378751 31.96088906 15.64252444 32.02561603 11.37109375 31.9765625 C10.62601562 31.97205078 9.8809375 31.96753906 9.11328125 31.96289062 C7.28251735 31.95115496 5.45179502 31.933221 3.62109375 31.9140625 C3.62109375 34.2240625 3.62109375 36.5340625 3.62109375 38.9140625 C4.28230225 38.90882568 4.94351074 38.90358887 5.62475586 38.89819336 C8.60269226 38.87748594 11.58061357 38.86442238 14.55859375 38.8515625 C15.59951172 38.84318359 16.64042969 38.83480469 17.71289062 38.82617188 C18.70224609 38.82294922 19.69160156 38.81972656 20.7109375 38.81640625 C21.62738037 38.81116943 22.54382324 38.80593262 23.48803711 38.80053711 C25.62109375 38.9140625 25.62109375 38.9140625 26.62109375 39.9140625 C26.71933312 41.57835301 26.75083006 43.24688181 26.74609375 44.9140625 C26.74996094 46.2753125 26.74996094 46.2753125 26.75390625 47.6640625 C26.62109375 49.9140625 26.62109375 49.9140625 25.62109375 50.9140625 C23.11185222 51.01493462 20.63072991 51.05378282 18.12109375 51.046875 C17.37021484 51.04783173 16.61933594 51.04878845 15.84570312 51.04977417 C14.25520748 51.05045588 12.66470908 51.04860222 11.07421875 51.04443359 C8.6314472 51.03908517 6.18885954 51.04437884 3.74609375 51.05078125 C2.20442668 51.05012047 0.66275972 51.0488393 -0.87890625 51.046875 C-1.61431641 51.04889923 -2.34972656 51.05092346 -3.10742188 51.05300903 C-8.26395464 51.02901411 -8.26395464 51.02901411 -9.37890625 49.9140625 C-9.47210074 48.3792328 -9.49636425 46.84014168 -9.49243164 45.30249023 C-9.49235611 44.32154892 -9.49228058 43.3406076 -9.49220276 42.3299408 C-9.48704147 41.2632869 -9.48188019 40.196633 -9.4765625 39.09765625 C-9.47514755 38.011465 -9.4737326 36.92527374 -9.47227478 35.8061676 C-9.46665673 32.32127175 -9.45410117 28.83643908 -9.44140625 25.3515625 C-9.43639358 22.99544363 -9.43183027 20.63932376 -9.42773438 18.28320312 C-9.41668144 12.49346786 -9.39992576 6.70376969 -9.37890625 0.9140625 C-6.36309607 -0.59384259 -3.29624473 -0.11120336 0 0 Z " fill="#8A63BE" transform="translate(330.37890625,247.0859375)"/>
<path d="M0 0 C5.4359291 6.72338599 5.14450311 12.73121109 5 21 C6.32 21 7.64 21 9 21 C9.02687279 22.81242052 9.04633715 24.62495233 9.0625 26.4375 C9.07410156 27.44683594 9.08570313 28.45617187 9.09765625 29.49609375 C9 32 9 32 8 33 C3.88689536 33.4338366 0.20439164 33.63230561 -3.5 31.6875 C-5 30 -5 30 -6 27 C-6.763125 27.804375 -7.52625 28.60875 -8.3125 29.4375 C-12.771932 33.68951656 -17.13435517 33.38796922 -23.0390625 33.359375 C-27.48521288 32.8197367 -29.0803203 31.31423102 -32 28 C-33.59869331 24.80261338 -33.51085495 21.469833 -33 18 C-31 15 -31 15 -29 13 C-29.99 12.67 -30.98 12.34 -32 12 C-32.97825809 9.71903641 -33.10233823 8.41257616 -32.50390625 6 C-30.19240908 1.08926743 -27.97363042 -1.22809656 -22.9375 -3.3203125 C-14.67506238 -6.21882892 -7.07569901 -5.13335026 0 0 Z M-19 8 C-19 8.66 -19 9.32 -19 10 C-14.9899066 10.17864631 -14.9899066 10.17864631 -11 10 C-10.34 9.34 -9.68 8.68 -9 8 C-12.23325019 6.38337491 -15.76674981 6.38337491 -19 8 Z M-19 20 C-19 20.66 -19 21.32 -19 22 C-13.98464948 21.67039784 -13.98464948 21.67039784 -10 19 C-14.74076549 17.81301999 -14.74076549 17.81301999 -19 20 Z " fill="#8C66C1" transform="translate(180,265)"/>
<path d="M0 0 C1.27955566 0.24556641 1.27955566 0.24556641 2.58496094 0.49609375 C6.00463259 1.00068356 9.18675651 1.09799508 12.640625 1.0625 C13.87554687 1.05476562 15.11046875 1.04703125 16.3828125 1.0390625 C17.65898438 1.02617187 18.93515625 1.01328125 20.25 1 C22.79683338 0.9745825 25.34371517 0.9535183 27.890625 0.9375 C29.01500977 0.92589844 30.13939453 0.91429687 31.29785156 0.90234375 C34 1 34 1 36 2 C36 5.63 36 9.26 36 13 C32.37 13 28.74 13 25 13 C25 21.91 25 30.82 25 40 C28.63 40 32.26 40 36 40 C36.09765625 48.49609375 36.09765625 48.49609375 36 51 C34.32804023 52.67195977 32.29109371 52.12785168 30.05909729 52.13894653 C29.37057175 52.1369223 28.6820462 52.13489807 27.97265625 52.1328125 C27.26854111 52.13376923 26.56442596 52.13472595 25.838974 52.13571167 C24.34683137 52.13639341 22.85468579 52.13453952 21.36254883 52.13037109 C19.07561582 52.12503063 16.78887992 52.1303121 14.50195312 52.13671875 C13.05468707 52.13605781 11.60742113 52.13477632 10.16015625 52.1328125 C9.47365494 52.13483673 8.78715363 52.13686096 8.07984924 52.13894653 C3.22991527 52.11495764 3.22991527 52.11495764 1 51 C0.97311849 49.35425434 0.95365877 47.70838587 0.9375 46.0625 C0.92589844 45.14597656 0.91429687 44.22945313 0.90234375 43.28515625 C1 41 1 41 2 40 C5.3 40 8.6 40 12 40 C12 31.09 12 22.18 12 13 C8.7 13 5.4 13 2 13 C0.18884044 11.18884044 0.61800552 8.38721773 0.4375 5.9375 C0.35371094 4.83277344 0.26992188 3.72804687 0.18359375 2.58984375 C0.09271484 1.30787109 0.09271484 1.30787109 0 0 Z " fill="#8B65BF" transform="translate(46,246)"/>
<path d="M0 0 C14.52 0 29.04 0 44 0 C44.495 4.95 44.495 4.95 45 10 C44 11 44 11 40.62109375 11.09765625 C39.22652923 11.09098369 37.83198257 11.07902532 36.4375 11.0625 C35.72658203 11.05798828 35.01566406 11.05347656 34.28320312 11.04882812 C32.52209987 11.03700864 30.76103964 11.01907263 29 11 C29.00785522 12.71884399 29.00785522 12.71884399 29.01586914 14.47241211 C29.03391717 18.70840682 29.04543128 22.94439812 29.05493164 27.18041992 C29.05997231 29.01668875 29.06680477 30.85295354 29.07543945 32.68920898 C29.08751672 35.32276401 29.09323081 37.95626616 29.09765625 40.58984375 C29.10281754 41.41588608 29.10797882 42.24192841 29.11329651 43.09300232 C29.11349205 45.06236368 29.06204152 47.03161614 29 49 C28.67 49.33 28.34 49.66 28 50 C24.04 50 20.08 50 16 50 C15.67 37.46 15.34 24.92 15 12 C10.05 11.67 5.1 11.34 0 11 C0 7.37 0 3.74 0 0 Z " fill="#8A64BF" transform="translate(359,248)"/>
<path d="M0 0 C2.4375 1.6875 2.4375 1.6875 4 4 C4.75525315 8.207839 3.35954059 10.5590033 1 14 C1.49113281 14.61230469 1.98226562 15.22460938 2.48828125 15.85546875 C4.65183447 20.35588306 4.32312578 24.39171834 4.1875 29.3125 C4.16719727 30.70952148 4.16719727 30.70952148 4.14648438 32.13476562 C4.1112742 34.42342712 4.05747134 36.71178929 4 39 C6.97 39 9.94 39 13 39 C13 42.63 13 46.26 13 50 C9.31211205 50.92197199 6.50646763 51.12896208 2.73828125 51.1328125 C1.53751953 51.13410156 0.33675781 51.13539063 -0.90039062 51.13671875 C-2.15013672 51.13285156 -3.39988281 51.12898438 -4.6875 51.125 C-5.94884766 51.12886719 -7.21019531 51.13273437 -8.50976562 51.13671875 C-9.70666016 51.13542969 -10.90355469 51.13414062 -12.13671875 51.1328125 C-13.78740356 51.13112061 -13.78740356 51.13112061 -15.47143555 51.12939453 C-18 51 -18 51 -19 50 C-19.07226502 48.14712498 -19.0838122 46.29166122 -19.0625 44.4375 C-19.05347656 43.42558594 -19.04445312 42.41367187 -19.03515625 41.37109375 C-19.02355469 40.58863281 -19.01195312 39.80617188 -19 39 C-15.7 39 -12.4 39 -9 39 C-9.33 35.04 -9.66 31.08 -10 27 C-11.134375 26.690625 -12.26875 26.38125 -13.4375 26.0625 C-17 25 -17 25 -18 24 C-17.82236496 20.64785492 -17.38013585 17.33674802 -17 14 C-13.7 13.67 -10.4 13.34 -7 13 C-8.32 12.01 -9.64 11.02 -11 10 C-11.52238806 4.04477612 -11.52238806 4.04477612 -10 1 C-6.40735548 -0.19754817 -3.77282526 -0.33094958 0 0 Z " fill="#8E68C1" transform="translate(251,247)"/>
<path d="M0 0 C7.92 0 15.84 0 24 0 C22 5 22 5 21 7 C22.98 7.66 24.96 8.32 27 9 C23.66643819 11.22237454 22.59573833 11.24742278 18.7109375 11.23046875 C17.68742187 11.22853516 16.66390625 11.22660156 15.609375 11.22460938 C14.54203125 11.21236328 13.4746875 11.20011719 12.375 11.1875 C11.29992187 11.18685547 10.22484375 11.18621094 9.1171875 11.18554688 C1.14022321 11.14022321 1.14022321 11.14022321 0 10 C0 6.7 0 3.4 0 0 Z " fill="#8661BC" transform="translate(187,300)"/>
<path d="M0 0 C3.79352336 1.47095804 5.17126986 2.73338766 7.25 6.125 C8.0625 8.1875 8.0625 8.1875 8.0625 12.1875 C3.86061252 11.53387306 0.09324554 10.53108185 -3.9375 9.1875 C-3.9375 8.5275 -3.9375 7.8675 -3.9375 7.1875 C-5.8865625 7.4659375 -5.8865625 7.4659375 -7.875 7.75 C-10.08984375 8.06640625 -10.08984375 8.06640625 -11.9375 8.1875 C-12.2675 7.8575 -12.5975 7.5275 -12.9375 7.1875 C-14.99146726 7.59679986 -14.99146726 7.59679986 -16.9375 8.1875 C-16.9375 7.1975 -16.9375 6.2075 -16.9375 5.1875 C-17.9275 5.8475 -18.9175 6.5075 -19.9375 7.1875 C-21.2575 7.1875 -22.5775 7.1875 -23.9375 7.1875 C-23.9375 6.5275 -23.9375 5.8675 -23.9375 5.1875 C-16.35632278 -1.03874342 -9.36263071 -2.26198011 0 0 Z " fill="#8B65C1" transform="translate(175.9375,262.8125)"/>
<path d="M0 0 C4.73646197 0.53437007 9.52552091 0.32815194 14.28515625 0.2578125 C14.28515625 0.5878125 14.28515625 0.9178125 14.28515625 1.2578125 C10.65515625 1.2578125 7.02515625 1.2578125 3.28515625 1.2578125 C3.28515625 9.8378125 3.28515625 18.4178125 3.28515625 27.2578125 C2.95515625 27.2578125 2.62515625 27.2578125 2.28515625 27.2578125 C1.95515625 24.2878125 1.62515625 21.3178125 1.28515625 18.2578125 C-1.68484375 18.5878125 -4.65484375 18.9178125 -7.71484375 19.2578125 C-7.71484375 13.9778125 -7.71484375 8.6978125 -7.71484375 3.2578125 C-7.05484375 3.2578125 -6.39484375 3.2578125 -5.71484375 3.2578125 C-6.04484375 2.2678125 -6.37484375 1.2778125 -6.71484375 0.2578125 C-4.19682617 -1.00119629 -2.69485833 -0.44628227 0 0 Z " fill="#8762BB" transform="translate(66.71484375,257.7421875)"/>
<path d="M0 0 C4.31248609 -0.02886537 8.62494762 -0.04675255 12.9375 -0.0625 C14.78504883 -0.07506836 14.78504883 -0.07506836 16.66992188 -0.08789062 C17.83974609 -0.09111328 19.00957031 -0.09433594 20.21484375 -0.09765625 C21.84087524 -0.10551147 21.84087524 -0.10551147 23.49975586 -0.11352539 C26 0 26 0 27 1 C27.07205511 2.68608966 27.08386068 4.37500659 27.0625 6.0625 C27.05347656 6.98160156 27.04445313 7.90070313 27.03515625 8.84765625 C27.02355469 9.55792969 27.01195312 10.26820313 27 11 C24.11734851 11.96088383 22.32337729 12.11670941 19.33203125 12.09765625 C18.43935547 12.09443359 17.54667969 12.09121094 16.62695312 12.08789062 C15.23379883 12.07532227 15.23379883 12.07532227 13.8125 12.0625 C12.40194336 12.05573242 12.40194336 12.05573242 10.96289062 12.04882812 C8.64186288 12.03704626 6.32096356 12.02059558 4 12 C4 14.31 4 16.62 4 19 C10.6 19 17.2 19 24 19 C24 22.63 24 26.26 24 30 C21.43312633 26.1496895 22.16711276 24.41430237 23 20 C22.34926514 20.00523682 21.69853027 20.01047363 21.02807617 20.01586914 C18.08122726 20.03664938 15.13439377 20.0496635 12.1875 20.0625 C10.65125977 20.07506836 10.65125977 20.07506836 9.08398438 20.08789062 C7.60961914 20.09272461 7.60961914 20.09272461 6.10546875 20.09765625 C5.19949951 20.10289307 4.29353027 20.10812988 3.36010742 20.11352539 C1 20 1 20 -2 19 C-2 17.35 -2 15.7 -2 14 C-1.401875 13.896875 -0.80375 13.79375 -0.1875 13.6875 C2.07046761 13.18672244 2.07046761 13.18672244 3.33129883 11.4753418 C5.58233411 9.48514337 6.91708935 9.65303799 9.88671875 9.70703125 C11.2934082 9.7215332 11.2934082 9.7215332 12.72851562 9.73632812 C13.70498047 9.76146484 14.68144531 9.78660156 15.6875 9.8125 C17.16959961 9.83280273 17.16959961 9.83280273 18.68164062 9.85351562 C21.12164231 9.88887797 23.56054719 9.93822967 26 10 C25.34 7.36 24.68 4.72 24 2 C16.08 1.67 8.16 1.34 0 1 C0 0.67 0 0.34 0 0 Z " fill="#A48FC0" transform="translate(330,248)"/>
<path d="M0 0 C0.66 0.66 1.32 1.32 2 2 C1.67 2.66 1.34 3.32 1 4 C5.29 4 9.58 4 14 4 C14.66 5.98 15.32 7.96 16 10 C16.99 10.33 17.98 10.66 19 11 C18.34 12.32 17.68 13.64 17 15 C17.66 15.66 18.32 16.32 19 17 C18.67 17.66 18.34 18.32 18 19 C16.35 18.67 14.7 18.34 13 18 C13 17.01 13 16.02 13 15 C12.01 15.495 12.01 15.495 11 16 C11.33 14.35 11.66 12.7 12 11 C9.03 10.67 6.06 10.34 3 10 C3.66 8.68 4.32 7.36 5 6 C2.58354218 5.83312552 2.58354218 5.83312552 0 6 C-0.66 6.66 -1.32 7.32 -2 8 C-4.625 8.125 -4.625 8.125 -7 8 C-7 7.34 -7 6.68 -7 6 C-5.35 5.67 -3.7 5.34 -2 5 C-1.67 4.01 -1.34 3.02 -1 2 C-0.67 1.34 -0.34 0.68 0 0 Z " fill="#8560BC" transform="translate(159,272)"/>
<path d="M0 0 C11.55 0 23.1 0 35 0 C35.495 4.95 35.495 4.95 36 10 C35.67 10.33 35.34 10.66 35 11 C30.05 11 25.1 11 20 11 C20 23.54 20 36.08 20 49 C19.67 49 19.34 49 19 49 C18.97494385 47.95545654 18.9498877 46.91091309 18.92407227 45.8347168 C18.82991461 41.96007984 18.72971428 38.08561866 18.62768555 34.21118164 C18.58436833 32.53414013 18.54269093 30.85705542 18.50268555 29.17993164 C18.44490515 26.76956159 18.3812332 24.3594083 18.31640625 21.94921875 C18.29969376 21.19912033 18.28298126 20.44902191 18.26576233 19.67619324 C18.17655767 16.54322008 17.99763547 13.9929064 17 11 C21.72194167 7.22244666 26.25928072 7.69903025 32 8 C32.38218767 6.34385343 32.71395102 4.67542976 33 3 C31.0769111 1.0769111 27.52929515 1.74678162 24.90234375 1.68359375 C24.19348526 1.66281265 23.48462677 1.64203156 22.75428772 1.62062073 C20.48212695 1.55505402 18.20984736 1.4962077 15.9375 1.4375 C14.40037817 1.39432151 12.8632685 1.35070745 11.32617188 1.30664062 C7.5509041 1.19936551 3.7755164 1.09811863 0 1 C0 0.67 0 0.34 0 0 Z " fill="#AE94CC" transform="translate(368,248)"/>
<path d="M0 0 C0.33 0 0.66 0 1 0 C1 3.3 1 6.6 1 10 C2.32 10 3.64 10 5 10 C5.02687279 11.81242052 5.04633715 13.62495233 5.0625 15.4375 C5.07410156 16.44683594 5.08570313 17.45617187 5.09765625 18.49609375 C5 21 5 21 4 22 C-0.11804587 22.43435778 -3.80508314 22.58288627 -7.5625 20.75 C-9 19 -9 19 -9 15 C-7.68 14.34 -6.36 13.68 -5 13 C-4.34 13.66 -3.68 14.32 -3 15 C-2.38125 14.649375 -1.7625 14.29875 -1.125 13.9375 C-0.073125 13.4734375 -0.073125 13.4734375 1 13 C1.66 13.33 2.32 13.66 3 14 C3 13.34 3 12.68 3 12 C2.01 12 1.02 12 0 12 C0 8.04 0 4.08 0 0 Z " fill="#8B61C5" transform="translate(184,276)"/>
<path d="M0 0 C0.33 0.99 0.66 1.98 1 3 C1.66 3.33 2.32 3.66 3 4 C2.67 6.31 2.34 8.62 2 11 C2.99 10.67 3.98 10.34 5 10 C5 9.34 5 8.68 5 8 C5.66 8 6.32 8 7 8 C7 7.34 7 6.68 7 6 C8.875 5.375 8.875 5.375 11 5 C11.66 5.66 12.32 6.32 13 7 C15.88717605 7.6837613 15.88717605 7.6837613 19.125 8.125 C20.22070312 8.29257812 21.31640625 8.46015625 22.4453125 8.6328125 C23.28835937 8.75398438 24.13140625 8.87515625 25 9 C25 9.33 25 9.66 25 10 C23.73542969 10.03867187 23.73542969 10.03867187 22.4453125 10.078125 C21.34960938 10.13484375 20.25390625 10.1915625 19.125 10.25 C18.03445312 10.29640625 16.94390625 10.3428125 15.8203125 10.390625 C12.89245508 10.68569815 12.89245508 10.68569815 11.6796875 12.921875 C11.34324219 13.95054687 11.34324219 13.95054687 11 15 C10.67 15.66 10.34 16.32 10 17 C6.12294944 16.42562214 3.88456423 14.57271945 1 12 C-0.26237731 9.47524538 -0.09856404 7.68799534 -0.0625 4.875 C-0.05347656 3.96492188 -0.04445312 3.05484375 -0.03515625 2.1171875 C-0.02355469 1.41851562 -0.01195312 0.71984375 0 0 Z " fill="#9575C2" transform="translate(186,270)"/>
<path d="M0 0 C1.58645357 3.17290713 1.12078213 6.58825384 1.09765625 10.0703125 C1.0962413 10.86654022 1.09482635 11.66276794 1.09336853 12.48312378 C1.08776345 15.0304538 1.07521014 17.57769647 1.0625 20.125 C1.05748565 21.85025915 1.05292263 23.57551967 1.04882812 25.30078125 C1.03779237 29.53388791 1.02052436 33.76692914 1 38 C0.01 38.495 0.01 38.495 -1 39 C-1.33 26.79 -1.66 14.58 -2 2 C-8.93 1.505 -8.93 1.505 -16 1 C-11.67522482 -3.32477518 -5.15201013 -2.38751689 0 0 Z " fill="#7D60AB" transform="translate(376,258)"/>
<path d="M0 0 C0.33 0 0.66 0 1 0 C1 8.91 1 17.82 1 27 C4.63 27 8.26 27 12 27 C12.09765625 35.49609375 12.09765625 35.49609375 12 38 C11 39 11 39 8.13256836 39.11352539 C6.88096924 39.10828857 5.62937012 39.10305176 4.33984375 39.09765625 C3.34314415 39.09553383 3.34314415 39.09553383 2.3263092 39.09336853 C0.19666101 39.08775518 -1.93288339 39.07520054 -4.0625 39.0625 C-5.50325369 39.05748671 -6.94400903 39.05292351 -8.38476562 39.04882812 C-11.92321102 39.03778145 -15.46159539 39.02050792 -19 39 C-19 38.67 -19 38.34 -19 38 C-9.76 37.67 -0.52 37.34 9 37 C9.33 34.03 9.66 31.06 10 28 C5.05 28.495 5.05 28.495 0 29 C0 19.43 0 9.86 0 0 Z " fill="#A589BE" transform="translate(70,259)"/>
<path d="M0 0 C0.66 0 1.32 0 2 0 C2.78871806 6.55442788 3.10136429 12.91296127 2.87890625 19.5078125 C2.85529526 20.35930878 2.83168427 21.21080505 2.80735779 22.08810425 C2.73171333 24.76728277 2.64727237 27.4460964 2.5625 30.125 C2.50917954 31.95831638 2.45644013 33.79164976 2.40429688 35.625 C2.27623537 40.08355768 2.14029266 44.54181111 2 49 C-0.70716242 49.90238747 -2.23776768 50.11851302 -5.01171875 50.09765625 C-6.14770508 50.09282227 -6.14770508 50.09282227 -7.30664062 50.08789062 C-8.48516602 50.07532227 -8.48516602 50.07532227 -9.6875 50.0625 C-10.48478516 50.05798828 -11.28207031 50.05347656 -12.10351562 50.04882812 C-14.06904257 50.0370585 -16.03453085 50.01912348 -18 50 C-15.06552643 47.06552643 -11.81740544 47.53841577 -7.875 47.375 C-7.12089844 47.33632813 -6.36679687 47.29765625 -5.58984375 47.2578125 C-3.72696816 47.16348969 -1.86351745 47.08065338 0 47 C0.02467609 41.48242521 0.04284856 35.96488239 0.05493164 30.44726562 C0.05996763 28.56933025 0.06679671 26.6913988 0.07543945 24.81347656 C0.08753713 22.11782868 0.09323557 19.42223253 0.09765625 16.7265625 C0.10281754 15.88380768 0.10797882 15.04105286 0.11329651 14.17276001 C0.23367039 9.95268639 0.23367039 9.95268639 -1 6 C-0.71887936 3.99199544 -0.38932033 1.98985949 0 0 Z " fill="#8A75C0" transform="translate(314,248)"/>
<path d="M0 0 C1.65322266 0.01740234 1.65322266 0.01740234 3.33984375 0.03515625 C4.99693359 0.04869141 4.99693359 0.04869141 6.6875 0.0625 C7.54214844 0.07410156 8.39679688 0.08570313 9.27734375 0.09765625 C9.27734375 2.07765625 9.27734375 4.05765625 9.27734375 6.09765625 C8.61734375 6.09765625 7.95734375 6.09765625 7.27734375 6.09765625 C7.27734375 4.77765625 7.27734375 3.45765625 7.27734375 2.09765625 C4.63734375 2.42765625 1.99734375 2.75765625 -0.72265625 3.09765625 C-0.7477124 3.81308594 -0.77276855 4.52851563 -0.79858398 5.265625 C-0.91544777 8.54311095 -1.03776048 11.82037241 -1.16015625 15.09765625 C-1.21913086 16.78568359 -1.21913086 16.78568359 -1.27929688 18.5078125 C-1.50438172 24.42927533 -1.86737709 30.23288487 -2.72265625 36.09765625 C-3.05265625 36.09765625 -3.38265625 36.09765625 -3.72265625 36.09765625 C-3.74730723 31.13143276 -3.76549274 26.16524459 -3.77758789 21.19897461 C-3.78262815 19.50821309 -3.7894603 17.81745596 -3.7980957 16.12670898 C-3.81017482 13.70164918 -3.81588748 11.27664681 -3.8203125 8.8515625 C-3.82547379 8.09114151 -3.83063507 7.33072052 -3.83595276 6.54725647 C-3.83614863 4.73033055 -3.78462902 2.91352498 -3.72265625 1.09765625 C-2.72265625 0.09765625 -2.72265625 0.09765625 0 0 Z " fill="#967EBC" transform="translate(88.72265625,260.90234375)"/>
<path d="M0 0 C-2.64 0.66 -5.28 1.32 -8 2 C-7.67 3.65 -7.34 5.3 -7 7 C-10.87684087 8.19287411 -13.91621923 9 -18 9 C-18.66 7.35 -19.32 5.7 -20 4 C-17.79174225 1.35115236 -16.53894137 0.12082245 -13.125 -0.64453125 C-12.09375 -0.69996094 -11.0625 -0.75539063 -10 -0.8125 C-8.96875 -0.88082031 -7.9375 -0.94914062 -6.875 -1.01953125 C-4 -1 -4 -1 0 0 Z " fill="#8661BD" transform="translate(215,280)"/>
<path d="M0 0 C2.31 0 4.62 0 7 0 C7 3.63 7 7.26 7 11 C3.28849415 11.92787646 0.49497358 12.11554233 -3.296875 12.09765625 C-4.50214844 12.09443359 -5.70742187 12.09121094 -6.94921875 12.08789062 C-8.20347656 12.07951172 -9.45773438 12.07113281 -10.75 12.0625 C-12.01972656 12.05798828 -13.28945312 12.05347656 -14.59765625 12.04882812 C-17.73181836 12.03704556 -20.86588541 12.02059416 -24 12 C-24.33 10.35 -24.66 8.7 -25 7 C-24.67 7.66 -24.34 8.32 -24 9 C-20.40535576 10.00946307 -16.9785748 10.11753249 -13.26171875 10.09765625 C-11.66166992 10.09282227 -11.66166992 10.09282227 -10.02929688 10.08789062 C-8.92650391 10.07951172 -7.82371094 10.07113281 -6.6875 10.0625 C-5.00430664 10.05573242 -5.00430664 10.05573242 -3.28710938 10.04882812 C-0.5246849 10.03707313 2.23762998 10.02064077 5 10 C4.87753906 8.7109375 4.75507813 7.421875 4.62890625 6.09375 C4.56002197 5.36865234 4.4911377 4.64355469 4.42016602 3.89648438 C4.16988482 1.77543436 4.16988482 1.77543436 1.9375 0.5 C1.298125 0.335 0.65875 0.17 0 0 Z " fill="#9683C0" transform="translate(257,286)"/>
<path d="M0 0 C1.32 0.33 2.64 0.66 4 1 C3.01 1 2.02 1 1 1 C1 3.31 1 5.62 1 8 C7.6 8 14.2 8 21 8 C21 11.63 21 15.26 21 19 C18.43312633 15.1496895 19.16711276 13.41430237 20 9 C19.34926514 9.00523682 18.69853027 9.01047363 18.02807617 9.01586914 C15.08122726 9.03664938 12.13439377 9.0496635 9.1875 9.0625 C7.65125977 9.07506836 7.65125977 9.07506836 6.08398438 9.08789062 C4.60961914 9.09272461 4.60961914 9.09272461 3.10546875 9.09765625 C1.74651489 9.10551147 1.74651489 9.10551147 0.36010742 9.11352539 C-2 9 -2 9 -5 8 C-5 6.35 -5 4.7 -5 3 C-4.360625 2.87625 -3.72125 2.7525 -3.0625 2.625 C-2.0415625 2.315625 -2.0415625 2.315625 -1 2 C-0.67 1.34 -0.34 0.68 0 0 Z " fill="#A584CB" transform="translate(333,259)"/>
<path d="M0 0 C0.99 0 1.98 0 3 0 C3 1.32 3 2.64 3 4 C3.66 3.34 4.32 2.68 5 2 C5 5 5 5 4 7 C4.99 7.33 5.98 7.66 7 8 C6.01 8.99 5.02 9.98 4 11 C3.67 9.68 3.34 8.36 3 7 C2.30132812 6.93941406 1.60265625 6.87882812 0.8828125 6.81640625 C-0.02726563 6.73261719 -0.93734375 6.64882813 -1.875 6.5625 C-2.77992188 6.48128906 -3.68484375 6.40007812 -4.6171875 6.31640625 C-7 6 -7 6 -9 5 C-8.67 4.01 -8.34 3.02 -8 2 C-7.67 2.66 -7.34 3.32 -7 4 C-4.69 3.34 -2.38 2.68 0 2 C0 1.34 0 0.68 0 0 Z " fill="#9B7CC5" transform="translate(168,283)"/>
<path d="M0 0 C2.125 0.375 2.125 0.375 4 1 C4.33 2.32 4.66 3.64 5 5 C3.68 5.33 2.36 5.66 1 6 C1.33 6.99 1.66 7.98 2 9 C-0.75078884 9.91692961 -2.35948913 10.10886083 -5.1875 10.0625 C-7.0746875 10.0315625 -7.0746875 10.0315625 -9 10 C-9 9.67 -9 9.34 -9 9 C-7.35 8.67 -5.7 8.34 -4 8 C-4.33 7.01 -4.66 6.02 -5 5 C-3.68 5 -2.36 5 -1 5 C-1.33 4.01 -1.66 3.02 -2 2 C-1.34 1.34 -0.68 0.68 0 0 Z " fill="#8260B7" transform="translate(214,285)"/>
<path d="M0 0 C-1.37671875 -0.08701172 -1.37671875 -0.08701172 -2.78125 -0.17578125 C-9.85502581 -0.43584654 -14.84691091 -0.55459146 -20.546875 3.90625 C-22 5 -22 5 -24 5 C-24 3.68 -24 2.36 -24 1 C-16.09815521 -2.56357706 -7.81990087 -5.21326725 0 0 Z " fill="#9980BF" transform="translate(176,263)"/>
<path d="M0 0 C11.55 0 23.1 0 35 0 C35.495 4.95 35.495 4.95 36 10 C35.34 10 34.68 10 34 10 C33.855625 8.865625 33.71125 7.73125 33.5625 6.5625 C33.38828522 3.19222799 33.38828522 3.19222799 32 2 C29.62661361 1.84028023 27.27881728 1.7407567 24.90234375 1.68359375 C24.19348526 1.66281265 23.48462677 1.64203156 22.75428772 1.62062073 C20.48212695 1.55505402 18.20984736 1.4962077 15.9375 1.4375 C14.40037817 1.39432151 12.8632685 1.35070745 11.32617188 1.30664062 C7.5509041 1.19936551 3.7755164 1.09811863 0 1 C0 0.67 0 0.34 0 0 Z " fill="#A08AC3" transform="translate(368,248)"/>
<path d="M0 0 C0.33 0 0.66 0 1 0 C1.66 6.6 2.32 13.2 3 20 C6.3 20.33 9.6 20.66 13 21 C12.67 21.66 12.34 22.32 12 23 C10.37536158 23.05395478 8.75021459 23.09277195 7.125 23.125 C6.22007813 23.14820313 5.31515625 23.17140625 4.3828125 23.1953125 C2 23 2 23 0 21 C-0.22705078 18.84521484 -0.22705078 18.84521484 -0.1953125 16.2109375 C-0.18886719 15.26992188 -0.18242188 14.32890625 -0.17578125 13.359375 C-0.15902344 12.37453125 -0.14226562 11.3896875 -0.125 10.375 C-0.11597656 9.38242187 -0.10695313 8.38984375 -0.09765625 7.3671875 C-0.07404116 4.91121866 -0.04110799 2.45572832 0 0 Z " fill="#9C90D7" transform="translate(108,275)"/>
<path d="M0 0 C3.3 0 6.6 0 10 0 C10 0.33 10 0.66 10 1 C8.02 1.33 6.04 1.66 4 2 C3.34 4.64 2.68 7.28 2 10 C4.97 10.495 4.97 10.495 8 11 C7.67 11.66 7.34 12.32 7 13 C0.125 11.125 0.125 11.125 -1 10 C-0.82236496 6.64785492 -0.38013585 3.33674802 0 0 Z " fill="#9C87C6" transform="translate(234,261)"/>
<path d="M0 0 C0.85158691 0.16298584 1.70317383 0.32597168 2.58056641 0.49389648 C6.01868628 1.00276572 9.23767119 1.11358866 12.7109375 1.09765625 C13.95488281 1.09443359 15.19882812 1.09121094 16.48046875 1.08789062 C17.76566406 1.07951172 19.05085938 1.07113281 20.375 1.0625 C21.68339844 1.05798828 22.99179688 1.05347656 24.33984375 1.04882812 C27.55994281 1.03707594 30.7799477 1.02064543 34 1 C34 1.66 34 2.32 34 3 C22.78 3.33 11.56 3.66 0 4 C0 2.68 0 1.36 0 0 Z " fill="#B3A1CE" transform="translate(46,246)"/>
<path d="M0 0 C0.66 0.99 1.32 1.98 2 3 C0.515 5.475 0.515 5.475 -1 8 C1.31 8.33 3.62 8.66 6 9 C6 9.66 6 10.32 6 11 C4.88625 11.103125 3.7725 11.20625 2.625 11.3125 C1.42875 11.539375 0.2325 11.76625 -1 12 C-1.66 12.99 -2.32 13.98 -3 15 C-4.61050328 5.98468271 -4.61050328 5.98468271 -2.0625 1.875 C-1.0415625 0.946875 -1.0415625 0.946875 0 0 Z " fill="#9A82C2" transform="translate(125,262)"/>
<path d="M0 0 C0.66 0.33 1.32 0.66 2 1 C2.02688151 2.64574566 2.04634123 4.29161413 2.0625 5.9375 C2.07410156 6.85402344 2.08570313 7.77054687 2.09765625 8.71484375 C2 11 2 11 1 12 C-0.41570123 12.08651611 -1.835595 12.10704904 -3.25390625 12.09765625 C-4.10791016 12.09443359 -4.96191406 12.09121094 -5.84179688 12.08789062 C-6.73962891 12.07951172 -7.63746094 12.07113281 -8.5625 12.0625 C-9.46419922 12.05798828 -10.36589844 12.05347656 -11.29492188 12.04882812 C-13.53001314 12.03700225 -15.76497437 12.0205222 -18 12 C-18 11.67 -18 11.34 -18 11 C-12.06 10.67 -6.12 10.34 0 10 C0 6.7 0 3.4 0 0 Z " fill="#9C92CA" transform="translate(355,286)"/>
<path d="M0 0 C0.33 0 0.66 0 1 0 C1 2.97 1 5.94 1 9 C-1.52475462 10.26237731 -3.31200466 10.09856404 -6.125 10.0625 C-7.03507813 10.05347656 -7.94515625 10.04445313 -8.8828125 10.03515625 C-9.58148438 10.02355469 -10.28015625 10.01195312 -11 10 C-10.67 9.01 -10.34 8.02 -10 7 C-7.03 7.33 -4.06 7.66 -1 8 C-1.020625 6.865625 -1.04125 5.73125 -1.0625 4.5625 C-1 1 -1 1 0 0 Z " fill="#A18CC2" transform="translate(144,288)"/>
<path d="M0 0 C0.33 0 0.66 0 1 0 C1 3.3 1 6.6 1 10 C2.32 10 3.64 10 5 10 C5 13.63 5 17.26 5 21 C4.01 21 3.02 21 2 21 C2.495 16.545 2.495 16.545 3 12 C2.01 12 1.02 12 0 12 C0 8.04 0 4.08 0 0 Z " fill="#AD91CA" transform="translate(184,276)"/>
<path d="M0 0 C0.625 1.875 0.625 1.875 1 4 C0.34 4.66 -0.32 5.32 -1 6 C-1.99 7.485 -1.99 7.485 -3 9 C-2.34 9 -1.68 9 -1 9 C-1.33 9.66 -1.66 10.32 -2 11 C-4.52259061 9.02579865 -4.9929808 8.03254358 -5.6875 4.8125 C-5.790625 3.884375 -5.89375 2.95625 -6 2 C-4.02 1.34 -2.04 0.68 0 0 Z " fill="#9979BF" transform="translate(196,287)"/>
<path d="M0 0 C0.33 0 0.66 0 1 0 C1.66 2.97 2.32 5.94 3 9 C4.64548828 8.98259766 4.64548828 8.98259766 6.32421875 8.96484375 C7.77864412 8.95546036 9.23307135 8.94636075 10.6875 8.9375 C11.7693457 8.92493164 11.7693457 8.92493164 12.87304688 8.91210938 C16.71555382 8.89456368 20.26639526 9.06475779 24 10 C24 10.33 24 10.66 24 11 C20.18751574 11.02887236 16.3750593 11.04675492 12.5625 11.0625 C11.47388672 11.07087891 10.38527344 11.07925781 9.26367188 11.08789062 C8.22919922 11.09111328 7.19472656 11.09433594 6.12890625 11.09765625 C4.69140015 11.10551147 4.69140015 11.10551147 3.22485352 11.11352539 C1 11 1 11 0 10 C-0.07205511 8.31391034 -0.08386068 6.62499341 -0.0625 4.9375 C-0.05347656 4.01839844 -0.04445312 3.09929687 -0.03515625 2.15234375 C-0.02355469 1.44207031 -0.01195312 0.73179687 0 0 Z " fill="#AF96C7" transform="translate(187,300)"/>
<path d="M0 0 C0.66 0 1.32 0 2 0 C2.33 1.32 2.66 2.64 3 4 C3.99 3.67 4.98 3.34 6 3 C6 3.66 6 4.32 6 5 C7.65 4.34 9.3 3.68 11 3 C11 3.99 11 4.98 11 6 C11.66 6.33 12.32 6.66 13 7 C4.95184867 7.46431642 4.95184867 7.46431642 1.4375 5.75 C0 4 0 4 0 0 Z " fill="#947CBB" transform="translate(175,291)"/>
<path d="M0 0 C0.66 0.66 1.32 1.32 2 2 C1.67 2.66 1.34 3.32 1 4 C2.98 4 4.96 4 7 4 C4.35001226 5.41963629 1.91349184 6.29674335 -1 7 C-1.33 7.33 -1.66 7.66 -2 8 C-3.66617115 8.04063832 -5.33388095 8.042721 -7 8 C-7 7.34 -7 6.68 -7 6 C-5.35 5.67 -3.7 5.34 -2 5 C-1.67 4.01 -1.34 3.02 -1 2 C-0.67 1.34 -0.34 0.68 0 0 Z " fill="#8160B1" transform="translate(159,272)"/>
<path d="M0 0 C0.33 0 0.66 0 1 0 C1.66 3.3 2.32 6.6 3 10 C-0.74368742 11.87184371 -1.8400791 12.23999767 -5.75 12.125 C-6.54921875 12.10695313 -7.3484375 12.08890625 -8.171875 12.0703125 C-8.77515625 12.04710937 -9.3784375 12.02390625 -10 12 C-10 11.34 -10 10.68 -10 10 C-6.7 10 -3.4 10 0 10 C0 6.7 0 3.4 0 0 Z " fill="#8363B5" transform="translate(243,276)"/>
<path d="M0 0 C0.66 0 1.32 0 2 0 C2 3.63 2 7.26 2 11 C-1.63 10.67 -5.26 10.34 -9 10 C-9 9.67 -9 9.34 -9 9 C-6.03 9 -3.06 9 0 9 C-0.185625 7.700625 -0.37125 6.40125 -0.5625 5.0625 C-0.87890625 2.84765625 -0.87890625 2.84765625 -1 1 C-0.67 0.67 -0.34 0.34 0 0 Z " fill="#9278BD" transform="translate(80,248)"/>
<path d="M0 0 C0.75410156 0.00451172 1.50820313 0.00902344 2.28515625 0.01367188 C4.14847127 0.02546501 6.01174555 0.04340058 7.875 0.0625 C7.875 0.3925 7.875 0.7225 7.875 1.0625 C6.88757813 1.12308594 5.90015625 1.18367188 4.8828125 1.24609375 C3.60148437 1.32988281 2.32015625 1.41367187 1 1.5 C-0.27617187 1.58121094 -1.55234375 1.66242188 -2.8671875 1.74609375 C-6.00800152 1.85456027 -6.00800152 1.85456027 -8.125 3.0625 C-8.78055119 5.58983235 -8.78055119 5.58983235 -9.125 8.0625 C-11.125 5.0625 -11.125 5.0625 -10.875 2.9375 C-9.12710024 -1.4322494 -3.98127082 -0.04469475 0 0 Z " fill="#8369AF" transform="translate(342.125,276.9375)"/>
<path d="M0 0 C0.33 0.99 0.66 1.98 1 3 C0.01 4.485 0.01 4.485 -1 6 C-4.3 5.67 -7.6 5.34 -11 5 C-11.33 4.01 -11.66 3.02 -12 2 C-11.38511719 2.10699219 -10.77023438 2.21398437 -10.13671875 2.32421875 C-8.92435547 2.50404297 -8.92435547 2.50404297 -7.6875 2.6875 C-6.88699219 2.81511719 -6.08648437 2.94273437 -5.26171875 3.07421875 C-2.90350321 3.22742807 -2.90350321 3.22742807 -1.20703125 1.51953125 C-0.80871094 1.01808594 -0.41039062 0.51664063 0 0 Z " fill="#8465AA" transform="translate(253,254)"/>
<path d="M0 0 C1.65 0 3.3 0 5 0 C4.71125 0.556875 4.4225 1.11375 4.125 1.6875 C2.9586747 4.08494645 1.9660119 6.51596939 1 9 C0.34 8.67 -0.32 8.34 -1 8 C-0.67 5.36 -0.34 2.72 0 0 Z " fill="#9077BE" transform="translate(226,271)"/>
<path d="M0 0 C1.58409994 0.11487748 3.16728963 0.24234508 4.75 0.375 C6.07257813 0.47941406 6.07257813 0.47941406 7.421875 0.5859375 C9.99066382 0.99850055 11.75841015 1.71160957 14 3 C12.22992286 3.08114106 10.45877902 3.13925505 8.6875 3.1875 C7.70136719 3.22230469 6.71523437 3.25710938 5.69921875 3.29296875 C3 3 3 3 1.14453125 1.48828125 C0.76683594 0.99714844 0.38914063 0.50601562 0 0 Z " fill="#9D80C0" transform="translate(151,295)"/>
<path d="M0 0 C1.2065625 0.0309375 1.2065625 0.0309375 2.4375 0.0625 C2.4375 0.7225 2.4375 1.3825 2.4375 2.0625 C-1.43934087 3.25537411 -4.47871923 4.0625 -8.5625 4.0625 C-8.8925 3.0725 -9.2225 2.0825 -9.5625 1.0625 C-8.1084375 1.0934375 -8.1084375 1.0934375 -6.625 1.125 C-3.22707532 1.0556546 -3.2165483 0.0784524 0 0 Z " fill="#7A5BB5" transform="translate(205.5625,284.9375)"/>
<path d="M0 0 C1.98 0 3.96 0 6 0 C6 0.66 6 1.32 6 2 C7.32 2.66 8.64 3.32 10 4 C9.67 4.99 9.34 5.98 9 7 C8.34 7 7.68 7 7 7 C6.67 6.01 6.34 5.02 6 4 C4.34795544 3.29788106 2.68076231 2.63028587 1 2 C0.67 1.34 0.34 0.68 0 0 Z " fill="#B183D3" transform="translate(244,259)"/>
<path d="M0 0 C-1 3 -1 3 -3 4 C-3.72693904 5.97888961 -4.39816251 7.97954558 -5 10 C-5.33 10 -5.66 10 -6 10 C-6.125 3.25 -6.125 3.25 -5 1 C-2 0 -2 0 0 0 Z " fill="#997DC0" transform="translate(246,247)"/>
<path d="M0 0 C1.98 0.99 1.98 0.99 4 2 C3.74438677 4.3431213 3.40729228 6.67843403 3 9 C2.01 9.495 2.01 9.495 1 10 C-0.60725635 6.78548731 -0.05748185 3.56387464 0 0 Z " fill="#9E85C8" transform="translate(147,283)"/>
<path d="M0 0 C0.99 0.33 1.98 0.66 3 1 C3 1.66 3 2.32 3 3 C-1.62 3 -6.24 3 -11 3 C-10.67 2.34 -10.34 1.68 -10 1 C-7.98177083 1.03255208 -5.96354167 1.06510417 -3.9453125 1.09765625 C-1.91814596 1.12649242 -1.91814596 1.12649242 0 0 Z " fill="#A78BC9" transform="translate(171,273)"/>
<path d="M0 0 C0.33 0.99 0.66 1.98 1 3 C-0.32 3 -1.64 3 -3 3 C-3 3.66 -3 4.32 -3 5 C-3.99 5 -4.98 5 -6 5 C-5.67 3.68 -5.34 2.36 -5 1 C-3.35 0.67 -1.7 0.34 0 0 Z " fill="#AB8FCB" transform="translate(196,287)"/>
<path d="M0 0 C1.6875 5.0625 1.6875 5.0625 2 7 C1.34 7.66 0.68 8.32 0 9 C-1.25664978 6.09399739 -2 4.20395416 -2 1 C-1.34 0.67 -0.68 0.34 0 0 Z " fill="#9A85C2" transform="translate(291,283)"/>
<path d="M0 0 C0.66 0.99 1.32 1.98 2 3 C1 4 1 4 -2.0625 4.0625 C-3.5165625 4.0315625 -3.5165625 4.0315625 -5 4 C-5 3.34 -5 2.68 -5 2 C-3.35 1.34 -1.7 0.68 0 0 Z " fill="#7B5EAE" transform="translate(171,279)"/>
<path d="M0 0 C2.3125 -0.25 2.3125 -0.25 5 0 C6.8125 2 6.8125 2 8 4 C2.25 3.125 2.25 3.125 0 2 C0 1.34 0 0.68 0 0 Z " fill="#855FAD" transform="translate(167,270)"/>
<path d="M0 0 C0.99 0.99 1.98 1.98 3 3 C2.01 3.495 2.01 3.495 1 4 C0.01 5.485 0.01 5.485 -1 7 C-1.66 6.67 -2.32 6.34 -3 6 C-3 5.01 -3 4.02 -3 3 C-2.01 3 -1.02 3 0 3 C0 2.01 0 1.02 0 0 Z " fill="#9F78CD" transform="translate(115,262)"/>
</svg>